<svg width="645" height="36" viewBox="0 2 645 32" fill="none" xmlns="http://www.w3.org/2000/svg">
<path d="M1 16.4971C14.6789 24.2462 28.3578 31.9953 43.9517 31.9953M86.864 16.4969C73.1851 24.246 59.5062 31.9951 43.9123 31.9951M86.8613 16.4982C100.54 8.7491 114.219 1 129.813 1M172.725 16.4985C159.046 8.74936 145.367 1.00026 129.774 1.00026M172.747 16.5018C186.425 24.2509 200.104 32 215.698 32M258.611 16.5015C244.932 24.2506 231.253 31.9997 215.659 31.9997M258.608 16.5029C272.287 8.75377 285.966 1.00466 301.559 1.00466M344.472 16.5031C330.793 8.75403 317.114 1.00493 301.52 1.00493M344.464 16.4994C358.143 24.2485 371.821 31.9976 387.415 31.9976M430.328 16.4991C416.649 24.2482 402.97 31.9973 387.376 31.9973M430.325 16.5004C444.004 8.75135 457.683 1.00225 473.277 1.00225M516.189 16.5007C502.51 8.75161 488.831 1.00251 473.237 1.00251M516.187 16.4995C529.866 24.2487 543.545 31.9978 559.139 31.9978M602.051 16.4993C588.372 24.2484 574.693 31.9975 559.099 31.9975M602.048 16.5006C615.727 8.75152 629.406 1.00242 645 1.00242" stroke="#FFB800" stroke-width="1"/>
</svg>
