<svg width="1292" height="35" viewBox="0 0 1292 35" fill="none" xmlns="http://www.w3.org/2000/svg">
<path d="M1290 17.5029C1276.32 9.7538 1262.64 2.0047 1247.05 2.0047M1204.14 17.5031C1217.81 9.754 1231.49 2.0049 1247.09 2.0049M1204.14 17.5018C1190.46 25.2509 1176.78 33 1161.19 33M1118.27 17.5015C1131.95 25.2506 1145.63 32.9997 1161.23 32.9997M1118.25 17.4982C1104.58 9.7491 1090.9 2 1075.3 2M1032.39 17.4985C1046.07 9.7494 1059.75 2.0003 1075.34 2.0003M1032.39 17.4971C1018.71 25.2462 1005.03 32.9953 989.441 32.9953M946.528 17.4969C960.207 25.246 973.886 32.9951 989.48 32.9951M946.536 17.5006C932.857 9.7515 919.179 2.0024 903.585 2.0024M860.672 17.5009C874.351 9.7518 888.03 2.0027 903.624 2.0027M860.675 17.4996C846.996 25.2486 833.317 32.9978 817.723 32.9978M774.811 17.4993C788.49 25.2484 802.169 32.9975 817.763 32.9975M774.813 17.5005C761.134 9.7513 747.455 2.0022 731.861 2.0022M688.949 17.5007C702.628 9.7516 716.307 2.0025 731.901 2.0025M688.952 17.4994C675.273 25.2485 661.594 32.9976 646 32.9976" stroke="#FFB800" stroke-width="4" stroke-linecap="round"/>
<path d="M2 17.5029C15.6789 9.7538 29.3578 2.0047 44.9517 2.0047M87.864 17.5031C74.1851 9.754 60.5062 2.0049 44.9123 2.0049M87.8613 17.5018C101.54 25.2509 115.219 33 130.813 33M173.725 17.5015C160.046 25.2506 146.367 32.9997 130.774 32.9997M173.747 17.4982C187.425 9.7491 201.104 2 216.698 2M259.611 17.4985C245.932 9.7494 232.253 2.0003 216.659 2.0003M259.608 17.4971C273.287 25.2462 286.966 32.9953 302.559 32.9953M345.472 17.4969C331.793 25.246 318.114 32.9951 302.52 32.9951M345.464 17.5006C359.143 9.7515 372.821 2.0024 388.415 2.0024M431.328 17.5009C417.649 9.7518 403.97 2.0027 388.376 2.0027M431.325 17.4996C445.004 25.2486 458.683 32.9978 474.277 32.9978M517.189 17.4993C503.51 25.2484 489.831 32.9975 474.237 32.9975M517.187 17.5005C530.866 9.7513 544.545 2.0022 560.139 2.0022M603.051 17.5007C589.372 9.7516 575.693 2.0025 560.099 2.0025M603.048 17.4994C616.727 25.2485 630.406 32.9976 646 32.9976" stroke="#FFB800" stroke-width="4" stroke-linecap="round"/>
</svg>
