<svg width="1290" height="35" viewBox="0 0 1290 35" fill="none" xmlns="http://www.w3.org/2000/svg">
<path d="M1289 17.5029C1275.32 9.7538 1261.64 2.0047 1246.05 2.0047M1203.14 17.5031C1216.81 9.754 1230.49 2.0049 1246.09 2.0049M1203.14 17.5018C1189.46 25.2509 1175.78 33 1160.19 33M1117.27 17.5015C1130.95 25.2506 1144.63 32.9997 1160.23 32.9997M1117.25 17.4982C1103.58 9.7491 1089.9 2 1074.3 2M1031.39 17.4985C1045.07 9.7494 1058.75 2.0003 1074.34 2.0003M1031.39 17.4971C1017.71 25.2462 1004.03 32.9953 988.441 32.9953M945.528 17.4969C959.207 25.246 972.886 32.9951 988.48 32.9951M945.536 17.5006C931.857 9.7515 918.179 2.0024 902.585 2.0024M859.672 17.5009C873.351 9.7518 887.03 2.0027 902.624 2.0027M859.675 17.4996C845.996 25.2486 832.317 32.9978 816.723 32.9978M773.811 17.4993C787.49 25.2484 801.169 32.9975 816.763 32.9975M773.813 17.5005C760.134 9.7513 746.455 2.0022 730.861 2.0022M687.949 17.5007C701.628 9.7516 715.307 2.0025 730.901 2.0025M687.952 17.4994C674.273 25.2485 660.594 32.9976 645 32.9976" stroke="#FFB800" stroke-width="2" stroke-linecap="round"/>
<path d="M1 17.5029C14.6789 9.7538 28.3578 2.0047 43.9517 2.0047M86.864 17.5031C73.1851 9.754 59.5062 2.0049 43.9123 2.0049M86.8613 17.5018C100.54 25.2509 114.219 33 129.813 33M172.725 17.5015C159.046 25.2506 145.367 32.9997 129.774 32.9997M172.747 17.4982C186.425 9.7491 200.104 2 215.698 2M258.611 17.4985C244.932 9.7494 231.253 2.0003 215.659 2.0003M258.608 17.4971C272.287 25.2462 285.966 32.9953 301.559 32.9953M344.472 17.4969C330.793 25.246 317.114 32.9951 301.52 32.9951M344.464 17.5006C358.143 9.7515 371.821 2.0024 387.415 2.0024M430.328 17.5009C416.649 9.7518 402.97 2.0027 387.376 2.0027M430.325 17.4996C444.004 25.2486 457.683 32.9978 473.277 32.9978M516.189 17.4993C502.51 25.2484 488.831 32.9975 473.237 32.9975M516.187 17.5005C529.866 9.7513 543.545 2.0022 559.139 2.0022M602.051 17.5007C588.372 9.7516 574.693 2.0025 559.099 2.0025M602.048 17.4994C615.727 25.2485 629.406 32.9976 645 32.9976" stroke="#FFB800" stroke-width="2" stroke-linecap="round"/>
</svg>
